Genre:Animation 
Language:English | French | Gaelic
IMDb:http://www.imdb.com/title/tt0775489/
Source:BluRay.x264-FHD


Format : MPEG-4
Format profile : Base Media
Codec ID : isom
File size : 1.04 GiB
Duration : 1h 19mn
Overall bit rate : 1 867 Kbps
Movie name : L.Illusionniste.2010.720p.BRRip.x264.Feel-Free


Video
Format settings, CABAC : Yes
Format settings, ReFrames : 4 frames
Format settings, GOP : M=4, N=16
Codec ID : avc1
Codec ID/Info : Advanced Video Coding
Duration : 1h 19mn
Bit rate mode : Variable
Bit rate : 1 500 Kbps
Width : 1 280 pixels
Height : 688 pixels
Display aspect ratio : 1.860
Frame rate mode : Constant
Frame rate : 24.000 fps
Color space : YUV
Chroma subsampling : 4:2:0
Bit depth : 8 bits
Scan type : Progressive
Bits/(Pixel*Frame) : 0.071
Stream size : 842 MiB (79%)
Writing library : x264

Audio
ID : 2
Format : AAC
Format/Info : Advanced Audio Codec
Format version : Version 4
Format profile : LC
Codec ID : 40
Duration : 1h 19mn
Bit rate mode : Variable
Bit rate : 384 Kbps
Channel(s) : 6 channels
Channel positions : Front: L C R, Side: L R, LFE
Sampling rate : 48.0 KHz
Stream size : 219 MiB (21%)


Plot:
A French illusionist finds himself out of work and travels to Scotland, where he meets a young woman. Their ensuing adventure changes both their lives forever






================================== 
http://thepiratebay.org/user/hiest
==================================






Screen Shots:
 
http://rapidhdd.com/images/83521vlcsnap-00001.png
 
http://www.rapidhdd.com/images/987534vlcsnap-00002.png
 
http://www.rapidhdd.com/images/609523vlcsnap-00003.png
 
http://www.rapidhdd.com/images/194444vlcsnap-00004.png